
<svg width="512" height="512" viewBox="0 0 512 512" fill="none" xmlns="http://www.w3.org/2000/svg">
  <rect width="512" height="512" rx="128" fill="url(#gradient)"/>
  <defs>
    <linearGradient id="gradient" x1="0%" y1="0%" x2="100%" y2="100%">
      <stop offset="0%" style="stop-color:#F97316"/>
      <stop offset="100%" style="stop-color:#DC2626"/>
    </linearGradient>
  </defs>
  <!-- Dumbbell icon centered and scaled appropriately -->
  <g transform="translate(128, 128) scale(16, 16)">
    <path d="m6.5 6.5.5.5-1.5 1.5.5.5c.75.75.75 2 0 2.75l-.5.5L7 13.25l.25.25a.5.5 0 0 1 0 .707l-1.5 1.5a.5.5 0 0 1-.707 0L5 15.75l-1.25 1.25a.5.5 0 0 1-.707 0l-1.5-1.5a.5.5 0 0 1 0-.707L1.75 14.5l-.5-.5c-.75-.75-.75-2 0-2.75l.5-.5L.25 9.25a.5.5 0 0 1 0-.707l1.5-1.5a.5.5 0 0 1 .707 0L3.75 8.5l1.25-1.25a.5.5 0 0 1 .707 0l1.5 1.5a.5.5 0 0 1 0 .707L6.25 10.5l.5.5c.75.75.75 2 0 2.75l-.5.5 1.5 1.5-.5.5L6.5 14.5l-.75-.75-.75.75z" fill="white" stroke="white" stroke-width="0.5"/>
  </g>
</svg>
